<svg width="189" height="79" viewBox="0 0 189 79" fill="none" xmlns="http://www.w3.org/2000/svg">
<path d="M2.044 37.8876C2.044 32.3156 6.608 27.9196 12.236 27.8916C14.644 27.8916 16.856 28.7316 18.564 30.0476C18.872 30.2996 18.928 30.7756 18.676 31.0276C18.452 31.3636 18.004 31.3916 17.724 31.1676C16.212 29.9916 14.308 29.2636 12.236 29.2636C7.336 29.2636 3.416 33.0996 3.416 37.8876C3.416 42.5636 7.336 46.3996 12.236 46.3996C14.308 46.3996 16.212 45.7276 17.668 44.4956C18.004 44.2716 18.452 44.3276 18.648 44.6636C18.928 44.9156 18.872 45.4196 18.564 45.6436C16.856 46.9596 14.644 47.7716 12.236 47.7716C6.608 47.7716 2.044 43.3476 2.044 37.8876ZM64.8172 47.0996V30.9716L58.5452 39.6796C58.4052 39.9036 58.1812 39.9876 57.9852 39.9876H57.9292C57.6772 39.9876 57.4812 39.9036 57.3412 39.6796L51.0692 30.9996V47.0996C51.0692 47.4636 50.7612 47.7716 50.3972 47.7716C50.0052 47.7716 49.6972 47.4636 49.6972 47.0996V28.9556C49.6972 28.7316 49.8092 28.5356 49.9772 28.4236C49.9772 28.3956 50.0052 28.3956 50.0332 28.3676C50.3412 28.1716 50.7612 28.2276 50.9852 28.5356L57.9572 38.1956L64.9012 28.5356C65.0972 28.2276 65.5452 28.1716 65.8532 28.3676C65.9372 28.4516 65.9932 28.5076 66.0492 28.5916C66.1052 28.7036 66.1612 28.8436 66.1612 28.9556V47.0996C66.1612 47.4636 65.8532 47.7716 65.4892 47.7716C65.0972 47.7716 64.8172 47.4636 64.8172 47.0996ZM71.9276 47.0996V28.8436C71.9276 28.4796 72.2356 28.1716 72.5996 28.1716H72.6556H82.6796C83.0716 28.1716 83.3516 28.4796 83.3516 28.8436C83.3516 29.2356 83.0716 29.5436 82.6796 29.5436H73.2996V37.2996H81.5036C81.8676 37.2996 82.1756 37.6076 82.1756 37.9996C82.1756 38.3636 81.8676 38.6716 81.5036 38.6716H73.2996V46.3996H82.6796C83.0716 46.3996 83.3516 46.7076 83.3516 47.0996C83.3516 47.4636 83.0716 47.7716 82.6796 47.7716H72.6836H72.5996H72.5436C72.2076 47.7436 71.9276 47.4636 71.9276 47.0996ZM93.5933 47.0996V29.5436H87.6853C87.3213 29.5436 87.0133 29.2356 87.0133 28.8436C87.0133 28.4796 87.3213 28.1716 87.6853 28.1716H100.845C101.209 28.1716 101.517 28.4796 101.517 28.8436C101.517 29.2356 101.209 29.5436 100.845 29.5436H94.9373V47.0996C94.9373 47.4636 94.6293 47.7716 94.2653 47.7716C93.9013 47.7716 93.5933 47.4636 93.5933 47.0996ZM114.264 44.9716C114.012 44.7476 113.984 44.3556 114.18 44.1036C114.404 43.8236 114.796 43.7956 115.048 44.0196C116.504 45.1956 118.94 46.5676 121.488 46.5396C123.196 46.5396 124.736 46.0356 125.8 45.2516C126.892 44.4676 127.48 43.4316 127.48 42.3396C127.48 41.2196 126.948 40.3796 125.884 39.6516C124.82 38.9516 123.252 38.4196 121.348 38.0556H121.292C119.472 37.7196 117.876 37.2156 116.672 36.4036C115.468 35.6196 114.656 34.4436 114.656 32.9876C114.656 31.5036 115.468 30.2156 116.7 29.3196C117.932 28.4236 119.584 27.8916 121.432 27.8916C124.008 27.8916 125.94 29.1516 127.48 30.1596C127.76 30.3556 127.844 30.7196 127.648 31.0276C127.48 31.3076 127.088 31.3916 126.808 31.1956C125.268 30.1876 123.588 29.1236 121.432 29.1236C119.836 29.1236 118.408 29.5996 117.428 30.2996C116.448 31.0276 115.888 31.9796 115.888 32.9876C115.916 33.9676 116.364 34.6956 117.344 35.3676C118.324 36.0396 119.78 36.5156 121.544 36.8516H121.6C123.56 37.2156 125.296 37.7756 126.584 38.6436C127.872 39.4836 128.74 40.7716 128.74 42.3396C128.74 43.9076 127.844 45.3076 126.528 46.2596C125.212 47.2116 123.448 47.7996 121.488 47.7996C118.492 47.7716 115.888 46.2596 114.264 44.9716ZM145.204 47.0996V38.6436H135.124V47.0996C135.124 47.4636 134.816 47.7716 134.424 47.7716C134.06 47.7716 133.752 47.4636 133.752 47.0996V28.8436C133.752 28.4796 134.06 28.1716 134.424 28.1716C134.816 28.1716 135.124 28.4796 135.124 28.8436V37.2996H145.204V28.8436C145.204 28.4796 145.512 28.1716 145.876 28.1716C146.268 28.1716 146.576 28.4796 146.576 28.8436V47.0996C146.576 47.4636 146.268 47.7716 145.876 47.7716C145.512 47.7716 145.204 47.4636 145.204 47.0996ZM151.888 37.8316C151.916 32.3436 156.06 27.8916 161.352 27.8916C166.588 27.8916 170.704 32.3436 170.732 37.8316C170.704 43.3196 166.588 47.7716 161.352 47.7716C156.06 47.7716 151.916 43.3196 151.888 37.8316ZM153.26 37.8316C153.26 42.6196 156.9 46.3996 161.352 46.3996C165.664 46.3996 169.304 42.6196 169.332 37.8316C169.304 32.9876 165.664 29.2916 161.352 29.2916C156.9 29.2916 153.26 32.9876 153.26 37.8316ZM176.545 47.0996V28.8436C176.545 28.4796 176.853 28.1716 177.217 28.1716H177.301H182.761C185.841 28.1716 188.333 30.6916 188.333 33.7716C188.333 36.8516 185.841 39.3436 182.761 39.3436L177.917 39.3996V47.0996C177.917 47.4636 177.609 47.7716 177.217 47.7716C176.853 47.7716 176.545 47.4636 176.545 47.0996ZM177.917 38.0276H182.761C185.085 37.9996 186.989 36.0956 186.989 33.7716C186.989 31.4476 185.085 29.5436 182.761 29.5436H177.917V38.0276Z" fill="#0B0B0B"/>
<path d="M36.059 12.4406C26.5719 25.9761 25.6438 29.3599 25.0251 38.0186C24.2787 48.4632 45.4704 48.9899 45.8577 38.5258C45.8643 38.3475 45.8633 38.178 45.8555 38.0186C46.268 14.6103 65.2767 8.62551 74.7294 8.55916C97.3336 9.27575 104.428 27.4358 105.15 36.4262C106.078 57.0279 89.682 67.9988 74.7294 69.17C58.2301 71.061 46.4798 59.2175 42.0401 52.4498C48.2273 67.0999 66.411 71.4922 74.7294 71.8572C103.356 69.0705 110.169 47.0754 109.997 36.4262C107.109 9.43498 85.2822 2.02368 74.7294 1.69193H65.5937C64.6592 1.69193 63.9017 0.934426 63.9017 0C50.4343 2.76549 41.9017 8.93295 38.2229 12.768C37.5883 13.4295 36.4256 13.2808 36.059 12.4406Z" fill="#620246"/>
<path d="M27.6849 37.1454C27.8499 43.2762 33.0472 44.5435 35.6252 44.4108C41.565 44.4108 43.05 39.5672 43.05 37.1454C44.3699 26.9541 48.3435 20.8233 50.1653 19.0319C49.5026 18.6249 49.2285 17.8152 49.6269 17.1472C50.1367 16.2926 50.8114 15.3547 51.1965 14.8518C64.6435 1.15715 82.511 5.36375 89.7638 9.17888C73.9002 0.357149 59.4777 3.76912 52.8301 7.2345C51.816 7.76316 50.5832 7.74953 49.6497 7.08885C36.0377 13.0604 27.4787 29.482 27.6849 37.1454Z" fill="#A62C81"/>
<ellipse cx="35.2092" cy="36.5257" rx="4.84669" ry="4.67768" fill="white"/>
<path d="M13.2559 77.3646L25.6296 68.2596C25.4272 68.1986 24.5086 67.522 22.454 65.304C20.3993 63.0859 19.8882 62.3504 19.8896 62.26L7.89728 71.7636C7.39737 72.2681 8.9258 74.115 9.75251 74.9755C12.0097 77.4184 13.0286 77.5861 13.2559 77.3646Z" fill="#030213"/>
<path d="M21.7053 62.0827C23.5968 64.4092 25.4766 66.157 26.1941 66.7505C26.5955 67.0973 26.4024 67.6151 25.9852 67.9338L25.6352 68.2012C24.0121 67.1553 20.7902 63.6334 19.947 62.2531L20.5543 61.7891C20.8135 61.591 21.1398 61.5549 21.3948 61.7651C21.5084 61.8588 21.6144 61.971 21.7053 62.0827Z" fill="#DADDDC"/>
<path d="M24.5759 62.2631C25.1637 62.9214 25.7879 63.5536 26.3572 64.0993C27.1649 64.8735 27.1447 66.103 26.2599 66.7789C25.2485 66.5425 21.5401 62.2882 21.6141 61.9223C22.49 61.2532 23.8447 61.4441 24.5759 62.2631Z" fill="#DADDDC"/>
<path d="M37.2598 57.2396L34.1378 59.6241C33.0599 60.4474 31.4259 60.3202 30.4883 59.3401C29.5507 58.3601 29.6644 56.8981 30.7424 56.0749L34.7794 52.9914C35.59 52.4806 36.5757 52.2744 37.4824 52.2248C38.8783 52.1484 39.9381 53.223 39.4539 54.3924C39.2737 54.8275 39.0438 55.2529 38.8125 55.6273C38.4251 56.2541 37.8676 56.7753 37.2598 57.2396Z" fill="#620246"/>
<path d="M32.8971 61.5447L27.5525 65.6259L23.0903 60.9626L28.5999 56.7553C28.8661 56.5521 29.2388 56.4819 29.4378 56.7459C29.4957 56.8227 29.5442 56.8893 29.6104 56.9607C30.6825 58.1174 32.7235 60.296 33.0453 60.547C33.4121 60.8331 33.261 61.2668 32.8971 61.5447Z" fill="#DADDDC"/>
</svg>
